#N canvas -8 -8 1354 685 12;
#X obj 103 434 dac~;
#X obj 210 16 notein;
#X obj 103 390 *~;
#X obj 103 322 *~ 1;
#X obj 263 158 / 127;
#X obj 31 103 mtof;
#X obj 31 248 osc~;
#X obj 263 303 line~;
#X obj 263 227 pack 0 700;
#X connect 1 0 5 0;
#X connect 1 1 4 0;
#X connect 2 0 0 0;
#X connect 2 0 0 1;
#X connect 3 0 2 0;
#X connect 4 0 8 0;
#X connect 5 0 6 0;
#X connect 6 0 3 0;
#X connect 7 0 2 1;
#X connect 8 0 7 0;
